<svg width="40" height="27" viewBox="0 0 40 27" fill="none" xmlns="http://www.w3.org/2000/svg">
<path d="M2.22222 26.6667H37.7778C39 26.6667 40 25.6667 40 24.4444C40 23.2222 39 22.2222 37.7778 22.2222H2.22222C1 22.2222 0 23.2222 0 24.4444C0 25.6667 1 26.6667 2.22222 26.6667ZM2.22222 15.5556H37.7778C39 15.5556 40 14.5556 40 13.3333C40 12.1111 39 11.1111 37.7778 11.1111H2.22222C1 11.1111 0 12.1111 0 13.3333C0 14.5556 1 15.5556 2.22222 15.5556ZM0 2.22222C0 3.44444 1 4.44444 2.22222 4.44444H37.7778C39 4.44444 40 3.44444 40 2.22222C40 1 39 0 37.7778 0H2.22222C1 0 0 1 0 2.22222Z" fill="white"/>
</svg>
