<svg width="82" height="81" viewBox="0 0 82 81" fill="none" xmlns="http://www.w3.org/2000/svg">
<g filter="url(#filter0_d_50_684)">
<path d="M23.2222 53.8333H58.7778C60 53.8333 61 52.8333 61 51.6111C61 50.3889 60 49.3889 58.7778 49.3889H23.2222C22 49.3889 21 50.3889 21 51.6111C21 52.8333 22 53.8333 23.2222 53.8333ZM23.2222 42.7222H58.7778C60 42.7222 61 41.7222 61 40.5C61 39.2778 60 38.2778 58.7778 38.2778H23.2222C22 38.2778 21 39.2778 21 40.5C21 41.7222 22 42.7222 23.2222 42.7222ZM21 29.3889C21 30.6111 22 31.6111 23.2222 31.6111H58.7778C60 31.6111 61 30.6111 61 29.3889C61 28.1667 60 27.1667 58.7778 27.1667H23.2222C22 27.1667 21 28.1667 21 29.3889Z" fill="black"/>
</g>
<defs>
<filter id="filter0_d_50_684" x="-20" y="-16" width="122" height="121" filterUnits="userSpaceOnUse" color-interpolation-filters="sRGB">
<feFlood flood-opacity="0" result="BackgroundImageFix"/>
<feColorMatrix in="SourceAlpha" type="matrix" values="0 0 0 0 0 0 0 0 0 0 0 0 0 0 0 0 0 0 127 0" result="hardAlpha"/>
<feOffset dy="4"/>
<feGaussianBlur stdDeviation="10"/>
<feComposite in2="hardAlpha" operator="out"/>
<feColorMatrix type="matrix" values="0 0 0 0 0 0 0 0 0 0 0 0 0 0 0 0 0 0 0.15 0"/>
<feBlend mode="normal" in2="BackgroundImageFix" result="effect1_dropShadow_50_684"/>
<feBlend mode="normal" in="SourceGraphic" in2="effect1_dropShadow_50_684" result="shape"/>
</filter>
</defs>
</svg>
